<?xml version="1.0" encoding="us-ascii" standalone="no"?><svg xmlns="http://www.w3.org/2000/svg" xmlns:xlink="http://www.w3.org/1999/xlink" contentStyleType="text/css" height="409px" preserveAspectRatio="none" style="width:763px;height:409px;background:#FFFFFF;" version="1.1" viewBox="0 0 763 409" width="763px" zoomAndPan="magnify"><defs/><g><!--class Creator--><g id="elem_Creator"><rect codeLine="1" fill="#F1F1F1" height="80.5938" id="Creator" rx="2.5" ry="2.5" style="stroke:#181818;stroke-width:0.5;" width="191" x="312" y="7"/><ellipse cx="376.25" cy="23" fill="#A9DCDF" rx="11" ry="11" style="stroke:#181818;stroke-width:1.0;"/><path d="M378.3281,24.8125 L378.7188,25.7969 L378.3281,25.7969 C377.875,25.7969 377.7656,25.8125 377.6094,25.9219 C377.3594,26.0781 377.2031,26.3594 377.2031,26.6563 C377.2031,26.9219 377.3438,27.1719 377.5625,27.3281 C377.7031,27.4531 377.9063,27.5 378.3281,27.5 L380.6875,27.5 C381.0469,27.5 381.2656,27.4688 381.4063,27.375 C381.6563,27.2344 381.8125,26.9375 381.8125,26.6563 C381.8125,26.375 381.6719,26.125 381.4531,25.9688 C381.2813,25.8281 381.125,25.7969 380.6563,25.7969 L377.2656,17.5938 L373.5938,17.5938 C373.1406,17.5938 373.0156,17.6094 372.8594,17.7031 C372.6094,17.875 372.4531,18.1563 372.4531,18.4375 C372.4531,18.7188 372.5938,18.9688 372.8125,19.1406 C372.9844,19.25 373.1563,19.2813 373.5938,19.2813 L374.6719,19.2813 L372.0313,25.7969 C371.6094,25.7969 371.4531,25.8125 371.2969,25.9219 C371.0469,26.0781 370.8906,26.3594 370.8906,26.6563 C370.8906,27.2188 371.2656,27.5 372.0156,27.5 L374.2813,27.5 C374.6406,27.5 374.8594,27.4688 374.9844,27.375 C375.25,27.2344 375.3906,26.9375 375.3906,26.6563 C375.3906,26.375 375.2656,26.125 375.0469,25.9531 C374.875,25.8281 374.7344,25.7969 374.2813,25.7969 L373.8906,25.7969 L374.2813,24.8125 L378.3281,24.8125 Z M377.625,23.1094 L374.9531,23.1094 L376.2969,19.8438 L377.625,23.1094 Z " fill="#000000"/><text fill="#000000" font-family="sans-serif" font-size="14" font-style="italic" lengthAdjust="spacing" textLength="54" x="396.75" y="27.8467">Creator</text><line style="stroke:#181818;stroke-width:0.5;" x1="313" x2="502" y1="39" y2="39"/><line style="stroke:#181818;stroke-width:0.5;" x1="313" x2="502" y1="47" y2="47"/><ellipse cx="323" cy="60.6484" fill="#84BE84" rx="3" ry="3" style="stroke:#038048;stroke-width:1.0;"/><text fill="#000000" font-family="sans-serif" font-size="14" lengthAdjust="spacing" textLength="165" x="332" y="63.9951">factory_method(): void</text><ellipse cx="323" cy="76.9453" fill="#84BE84" rx="3" ry="3" style="stroke:#038048;stroke-width:1.0;"/><text fill="#000000" font-family="sans-serif" font-size="14" lengthAdjust="spacing" textLength="123" x="332" y="80.292">perimetro(): void</text></g><!--class CreatorTriangulo--><g id="elem_CreatorTriangulo"><rect codeLine="6" fill="#F1F1F1" height="64.2969" id="CreatorTriangulo" rx="2.5" ry="2.5" style="stroke:#181818;stroke-width:0.5;" width="191" x="7" y="165"/><ellipse cx="39.1" cy="181" fill="#ADD1B2" rx="11" ry="11" style="stroke:#181818;stroke-width:1.0;"/><path d="M41.4438,176.6719 C40.5063,176.2344 39.9125,176.0938 39.0375,176.0938 C36.4125,176.0938 34.4125,178.1719 34.4125,180.8906 L34.4125,182.0156 C34.4125,184.5938 36.5219,186.4844 39.4125,186.4844 C40.6313,186.4844 41.7875,186.1875 42.5375,185.6406 C43.1156,185.2344 43.4438,184.7813 43.4438,184.3906 C43.4438,183.9375 43.0531,183.5469 42.5844,183.5469 C42.3656,183.5469 42.1625,183.625 41.975,183.8125 C41.5219,184.2969 41.5219,184.2969 41.3344,184.3906 C40.9125,184.6563 40.225,184.7813 39.4594,184.7813 C37.4125,184.7813 36.1156,183.6875 36.1156,181.9844 L36.1156,180.8906 C36.1156,179.1094 37.3656,177.7969 39.1,177.7969 C39.6781,177.7969 40.2875,177.9531 40.7563,178.2031 C41.2406,178.4844 41.4125,178.7031 41.5063,179.1094 C41.5688,179.5156 41.6,179.6406 41.7406,179.7656 C41.8813,179.9063 42.1156,180.0156 42.3344,180.0156 C42.6,180.0156 42.8656,179.875 43.0375,179.6563 C43.1469,179.5 43.1781,179.3125 43.1781,178.8906 L43.1781,177.4688 C43.1781,177.0313 43.1625,176.9063 43.0688,176.75 C42.9125,176.4844 42.6313,176.3438 42.3344,176.3438 C42.0375,176.3438 41.8344,176.4375 41.6156,176.75 L41.4438,176.6719 Z " fill="#000000"/><text fill="#000000" font-family="sans-serif" font-size="14" lengthAdjust="spacing" textLength="121" x="56.9" y="185.8467">CreatorTriangulo</text><line style="stroke:#181818;stroke-width:0.5;" x1="8" x2="197" y1="197" y2="197"/><line style="stroke:#181818;stroke-width:0.5;" x1="8" x2="197" y1="205" y2="205"/><ellipse cx="18" cy="218.6484" fill="#84BE84" rx="3" ry="3" style="stroke:#038048;stroke-width:1.0;"/><text fill="#000000" font-family="sans-serif" font-size="14" lengthAdjust="spacing" textLength="165" x="27" y="221.9951">factory_method(): void</text></g><!--class CreatorRectangulo--><g id="elem_CreatorRectangulo"><rect codeLine="10" fill="#F1F1F1" height="64.2969" id="CreatorRectangulo" rx="2.5" ry="2.5" style="stroke:#181818;stroke-width:0.5;" width="191" x="415" y="165"/><ellipse cx="440.35" cy="181" fill="#ADD1B2" rx="11" ry="11" style="stroke:#181818;stroke-width:1.0;"/><path d="M442.6938,176.6719 C441.7563,176.2344 441.1625,176.0938 440.2875,176.0938 C437.6625,176.0938 435.6625,178.1719 435.6625,180.8906 L435.6625,182.0156 C435.6625,184.5938 437.7719,186.4844 440.6625,186.4844 C441.8813,186.4844 443.0375,186.1875 443.7875,185.6406 C444.3656,185.2344 444.6938,184.7813 444.6938,184.3906 C444.6938,183.9375 444.3031,183.5469 443.8344,183.5469 C443.6156,183.5469 443.4125,183.625 443.225,183.8125 C442.7719,184.2969 442.7719,184.2969 442.5844,184.3906 C442.1625,184.6563 441.475,184.7813 440.7094,184.7813 C438.6625,184.7813 437.3656,183.6875 437.3656,181.9844 L437.3656,180.8906 C437.3656,179.1094 438.6156,177.7969 440.35,177.7969 C440.9281,177.7969 441.5375,177.9531 442.0063,178.2031 C442.4906,178.4844 442.6625,178.7031 442.7563,179.1094 C442.8188,179.5156 442.85,179.6406 442.9906,179.7656 C443.1313,179.9063 443.3656,180.0156 443.5844,180.0156 C443.85,180.0156 444.1156,179.875 444.2875,179.6563 C444.3969,179.5 444.4281,179.3125 444.4281,178.8906 L444.4281,177.4688 C444.4281,177.0313 444.4125,176.9063 444.3188,176.75 C444.1625,176.4844 443.8813,176.3438 443.5844,176.3438 C443.2875,176.3438 443.0844,176.4375 442.8656,176.75 L442.6938,176.6719 Z " fill="#000000"/><text fill="#000000" font-family="sans-serif" font-size="14" lengthAdjust="spacing" textLength="136" x="456.65" y="185.8467">CreatorRectangulo</text><line style="stroke:#181818;stroke-width:0.5;" x1="416" x2="605" y1="197" y2="197"/><line style="stroke:#181818;stroke-width:0.5;" x1="416" x2="605" y1="205" y2="205"/><ellipse cx="426" cy="218.6484" fill="#84BE84" rx="3" ry="3" style="stroke:#038048;stroke-width:1.0;"/><text fill="#000000" font-family="sans-serif" font-size="14" lengthAdjust="spacing" textLength="165" x="435" y="221.9951">factory_method(): void</text></g><!--class Poligono--><g id="elem_Poligono"><rect codeLine="20" fill="#F1F1F1" height="64.2969" id="Poligono" rx="2.5" ry="2.5" style="stroke:#181818;stroke-width:0.5;" width="147" x="233" y="165"/><ellipse cx="272.3" cy="181" fill="#A9DCDF" rx="11" ry="11" style="stroke:#181818;stroke-width:1.0;"/><path d="M274.3781,182.8125 L274.7688,183.7969 L274.3781,183.7969 C273.925,183.7969 273.8156,183.8125 273.6594,183.9219 C273.4094,184.0781 273.2531,184.3594 273.2531,184.6563 C273.2531,184.9219 273.3938,185.1719 273.6125,185.3281 C273.7531,185.4531 273.9563,185.5 274.3781,185.5 L276.7375,185.5 C277.0969,185.5 277.3156,185.4688 277.4563,185.375 C277.7063,185.2344 277.8625,184.9375 277.8625,184.6563 C277.8625,184.375 277.7219,184.125 277.5031,183.9688 C277.3313,183.8281 277.175,183.7969 276.7063,183.7969 L273.3156,175.5938 L269.6438,175.5938 C269.1906,175.5938 269.0656,175.6094 268.9094,175.7031 C268.6594,175.875 268.5031,176.1563 268.5031,176.4375 C268.5031,176.7188 268.6438,176.9688 268.8625,177.1406 C269.0344,177.25 269.2063,177.2813 269.6438,177.2813 L270.7219,177.2813 L268.0813,183.7969 C267.6594,183.7969 267.5031,183.8125 267.3469,183.9219 C267.0969,184.0781 266.9406,184.3594 266.9406,184.6563 C266.9406,185.2188 267.3156,185.5 268.0656,185.5 L270.3313,185.5 C270.6906,185.5 270.9094,185.4688 271.0344,185.375 C271.3,185.2344 271.4406,184.9375 271.4406,184.6563 C271.4406,184.375 271.3156,184.125 271.0969,183.9531 C270.925,183.8281 270.7844,183.7969 270.3313,183.7969 L269.9406,183.7969 L270.3313,182.8125 L274.3781,182.8125 Z M273.675,181.1094 L271.0031,181.1094 L272.3469,177.8438 L273.675,181.1094 Z " fill="#000000"/><text fill="#000000" font-family="sans-serif" font-size="14" font-style="italic" lengthAdjust="spacing" textLength="61" x="291.7" y="185.8467">Poligono</text><line style="stroke:#181818;stroke-width:0.5;" x1="234" x2="379" y1="197" y2="197"/><line style="stroke:#181818;stroke-width:0.5;" x1="234" x2="379" y1="205" y2="205"/><ellipse cx="244" cy="218.6484" fill="#84BE84" rx="3" ry="3" style="stroke:#038048;stroke-width:1.0;"/><text fill="#000000" font-family="sans-serif" font-size="14" lengthAdjust="spacing" textLength="121" x="253" y="221.9951">operacion(): void</text></g><!--class client_code--><g id="elem_client_code"><rect fill="#F1F1F1" height="48" id="client_code" rx="2.5" ry="2.5" style="stroke:#181818;stroke-width:0.5;" width="115" x="641" y="173"/><ellipse cx="656" cy="189" fill="#ADD1B2" rx="11" ry="11" style="stroke:#181818;stroke-width:1.0;"/><path d="M658.3438,184.6719 C657.4063,184.2344 656.8125,184.0938 655.9375,184.0938 C653.3125,184.0938 651.3125,186.1719 651.3125,188.8906 L651.3125,190.0156 C651.3125,192.5938 653.4219,194.4844 656.3125,194.4844 C657.5313,194.4844 658.6875,194.1875 659.4375,193.6406 C660.0156,193.2344 660.3438,192.7813 660.3438,192.3906 C660.3438,191.9375 659.9531,191.5469 659.4844,191.5469 C659.2656,191.5469 659.0625,191.625 658.875,191.8125 C658.4219,192.2969 658.4219,192.2969 658.2344,192.3906 C657.8125,192.6563 657.125,192.7813 656.3594,192.7813 C654.3125,192.7813 653.0156,191.6875 653.0156,189.9844 L653.0156,188.8906 C653.0156,187.1094 654.2656,185.7969 656,185.7969 C656.5781,185.7969 657.1875,185.9531 657.6563,186.2031 C658.1406,186.4844 658.3125,186.7031 658.4063,187.1094 C658.4688,187.5156 658.5,187.6406 658.6406,187.7656 C658.7813,187.9063 659.0156,188.0156 659.2344,188.0156 C659.5,188.0156 659.7656,187.875 659.9375,187.6563 C660.0469,187.5 660.0781,187.3125 660.0781,186.8906 L660.0781,185.4688 C660.0781,185.0313 660.0625,184.9063 659.9688,184.75 C659.8125,184.4844 659.5313,184.3438 659.2344,184.3438 C658.9375,184.3438 658.7344,184.4375 658.5156,184.75 L658.3438,184.6719 Z " fill="#000000"/><text fill="#000000" font-family="sans-serif" font-size="14" lengthAdjust="spacing" textLength="83" x="670" y="193.8467">client_code</text><line style="stroke:#181818;stroke-width:0.5;" x1="642" x2="755" y1="205" y2="205"/><line style="stroke:#181818;stroke-width:0.5;" x1="642" x2="755" y1="213" y2="213"/></g><!--class ProductoTriangulo--><g id="elem_ProductoTriangulo"><rect codeLine="24" fill="#F1F1F1" height="96.8906" id="ProductoTriangulo" rx="2.5" ry="2.5" style="stroke:#181818;stroke-width:0.5;" width="163" x="72" y="306"/><ellipse cx="87" cy="322" fill="#ADD1B2" rx="11" ry="11" style="stroke:#181818;stroke-width:1.0;"/><path d="M89.3438,317.6719 C88.4063,317.2344 87.8125,317.0938 86.9375,317.0938 C84.3125,317.0938 82.3125,319.1719 82.3125,321.8906 L82.3125,323.0156 C82.3125,325.5938 84.4219,327.4844 87.3125,327.4844 C88.5313,327.4844 89.6875,327.1875 90.4375,326.6406 C91.0156,326.2344 91.3438,325.7813 91.3438,325.3906 C91.3438,324.9375 90.9531,324.5469 90.4844,324.5469 C90.2656,324.5469 90.0625,324.625 89.875,324.8125 C89.4219,325.2969 89.4219,325.2969 89.2344,325.3906 C88.8125,325.6563 88.125,325.7813 87.3594,325.7813 C85.3125,325.7813 84.0156,324.6875 84.0156,322.9844 L84.0156,321.8906 C84.0156,320.1094 85.2656,318.7969 87,318.7969 C87.5781,318.7969 88.1875,318.9531 88.6563,319.2031 C89.1406,319.4844 89.3125,319.7031 89.4063,320.1094 C89.4688,320.5156 89.5,320.6406 89.6406,320.7656 C89.7813,320.9063 90.0156,321.0156 90.2344,321.0156 C90.5,321.0156 90.7656,320.875 90.9375,320.6563 C91.0469,320.5 91.0781,320.3125 91.0781,319.8906 L91.0781,318.4688 C91.0781,318.0313 91.0625,317.9063 90.9688,317.75 C90.8125,317.4844 90.5313,317.3438 90.2344,317.3438 C89.9375,317.3438 89.7344,317.4375 89.5156,317.75 L89.3438,317.6719 Z " fill="#000000"/><text fill="#000000" font-family="sans-serif" font-size="14" lengthAdjust="spacing" textLength="131" x="101" y="326.8467">ProductoTriangulo</text><line style="stroke:#181818;stroke-width:0.5;" x1="73" x2="234" y1="338" y2="338"/><rect fill="none" height="6" style="stroke:#C82930;stroke-width:1.0;" width="6" x="80" y="348.6484"/><text fill="#000000" font-family="sans-serif" font-size="14" lengthAdjust="spacing" textLength="86" x="92" y="354.9951">cateto1: int</text><rect fill="none" height="6" style="stroke:#C82930;stroke-width:1.0;" width="6" x="80" y="364.9453"/><text fill="#000000" font-family="sans-serif" font-size="14" lengthAdjust="spacing" textLength="85" x="92" y="371.292">cateto2: int</text><line style="stroke:#181818;stroke-width:0.5;" x1="73" x2="234" y1="378.5938" y2="378.5938"/><ellipse cx="83" cy="392.2422" fill="#84BE84" rx="3" ry="3" style="stroke:#038048;stroke-width:1.0;"/><text fill="#000000" font-family="sans-serif" font-size="14" lengthAdjust="spacing" textLength="121" x="92" y="395.5889">operacion(): void</text></g><!--class ProductoRectangulo--><g id="elem_ProductoRectangulo"><rect codeLine="30" fill="#F1F1F1" height="96.8906" id="ProductoRectangulo" rx="2.5" ry="2.5" style="stroke:#181818;stroke-width:0.5;" width="178" x="287.5" y="306"/><ellipse cx="302.5" cy="322" fill="#ADD1B2" rx="11" ry="11" style="stroke:#181818;stroke-width:1.0;"/><path d="M304.8438,317.6719 C303.9063,317.2344 303.3125,317.0938 302.4375,317.0938 C299.8125,317.0938 297.8125,319.1719 297.8125,321.8906 L297.8125,323.0156 C297.8125,325.5938 299.9219,327.4844 302.8125,327.4844 C304.0313,327.4844 305.1875,327.1875 305.9375,326.6406 C306.5156,326.2344 306.8438,325.7813 306.8438,325.3906 C306.8438,324.9375 306.4531,324.5469 305.9844,324.5469 C305.7656,324.5469 305.5625,324.625 305.375,324.8125 C304.9219,325.2969 304.9219,325.2969 304.7344,325.3906 C304.3125,325.6563 303.625,325.7813 302.8594,325.7813 C300.8125,325.7813 299.5156,324.6875 299.5156,322.9844 L299.5156,321.8906 C299.5156,320.1094 300.7656,318.7969 302.5,318.7969 C303.0781,318.7969 303.6875,318.9531 304.1563,319.2031 C304.6406,319.4844 304.8125,319.7031 304.9063,320.1094 C304.9688,320.5156 305,320.6406 305.1406,320.7656 C305.2813,320.9063 305.5156,321.0156 305.7344,321.0156 C306,321.0156 306.2656,320.875 306.4375,320.6563 C306.5469,320.5 306.5781,320.3125 306.5781,319.8906 L306.5781,318.4688 C306.5781,318.0313 306.5625,317.9063 306.4688,317.75 C306.3125,317.4844 306.0313,317.3438 305.7344,317.3438 C305.4375,317.3438 305.2344,317.4375 305.0156,317.75 L304.8438,317.6719 Z " fill="#000000"/><text fill="#000000" font-family="sans-serif" font-size="14" lengthAdjust="spacing" textLength="146" x="316.5" y="326.8467">ProductoRectangulo</text><line style="stroke:#181818;stroke-width:0.5;" x1="288.5" x2="464.5" y1="338" y2="338"/><rect fill="none" height="6" style="stroke:#C82930;stroke-width:1.0;" width="6" x="295.5" y="348.6484"/><text fill="#000000" font-family="sans-serif" font-size="14" lengthAdjust="spacing" textLength="68" x="307.5" y="354.9951">lado1: int</text><rect fill="none" height="6" style="stroke:#C82930;stroke-width:1.0;" width="6" x="295.5" y="364.9453"/><text fill="#000000" font-family="sans-serif" font-size="14" lengthAdjust="spacing" textLength="67" x="307.5" y="371.292">lado2: int</text><line style="stroke:#181818;stroke-width:0.5;" x1="288.5" x2="464.5" y1="378.5938" y2="378.5938"/><ellipse cx="298.5" cy="392.2422" fill="#84BE84" rx="3" ry="3" style="stroke:#038048;stroke-width:1.0;"/><text fill="#000000" font-family="sans-serif" font-size="14" lengthAdjust="spacing" textLength="121" x="307.5" y="395.5889">operacion(): void</text></g><!--reverse link Creator to CreatorTriangulo--><g id="link_Creator_CreatorTriangulo"><path codeLine="14" d="M309.5615,95.8637 C259.8005,119.9287 213.329,142.402 167.06,164.778 " fill="none" id="Creator-backto-CreatorTriangulo" style="stroke:#181818;stroke-width:1.0;"/><polygon fill="none" points="325.766,88.027,306.9493,90.4622,312.1737,101.2652,325.766,88.027" style="stroke:#181818;stroke-width:1.0;"/></g><!--reverse link Creator to CreatorRectangulo--><g id="link_Creator_CreatorRectangulo"><path codeLine="15" d="M445.4072,102.7851 C462.2112,126.8501 473.072,142.402 488.698,164.778 " fill="none" id="Creator-backto-CreatorRectangulo" style="stroke:#181818;stroke-width:1.0;"/><polygon fill="none" points="435.102,88.027,440.4879,106.2202,450.3266,99.35,435.102,88.027" style="stroke:#181818;stroke-width:1.0;"/></g><!--link Creator to Poligono--><g id="link_Creator_Poligono"><path codeLine="17" d="M380.434,88.027 C363.956,112.092 346.5909,137.4514 331.2689,159.8274 " fill="none" id="Creator-to-Poligono" style="stroke:#181818;stroke-width:1.0;"/><polygon fill="#181818" points="327.879,164.778,336.2643,159.6121,330.7039,160.6525,329.6635,155.0922,327.879,164.778" style="stroke:#181818;stroke-width:1.0;"/><text fill="#000000" font-family="sans-serif" font-size="13" lengthAdjust="spacing" textLength="30" x="358.5" y="131.0669">Crea</text><text fill="#000000" font-family="sans-serif" font-size="13" lengthAdjust="spacing" textLength="8" x="367.4829" y="107.7912">1</text><text fill="#000000" font-family="sans-serif" font-size="13" lengthAdjust="spacing" textLength="7" x="324.3989" y="154.0085">*</text></g><!--reverse link Creator to client_code--><g id="link_Creator_client_code"><path codeLine="18" d="M490.8347,90.7397 C544.3717,117.8767 608.227,150.243 652.986,172.93 " fill="none" id="Creator-backto-client_code" style="stroke:#181818;stroke-width:1.0;"/><polygon fill="#181818" points="485.483,88.027,491.7021,95.6639,489.9428,90.2876,495.3191,88.5282,485.483,88.027" style="stroke:#181818;stroke-width:1.0;"/><text fill="#000000" font-family="sans-serif" font-size="13" lengthAdjust="spacing" textLength="24" x="571.5" y="131.0669">Usa</text></g><!--reverse link Poligono to ProductoTriangulo--><g id="link_Poligono_ProductoTriangulo"><path codeLine="36" d="M263.2815,241.9245 C241.6545,263.9045 224.884,280.949 200.321,305.9139 " fill="none" id="Poligono-backto-ProductoTriangulo" style="stroke:#181818;stroke-width:1.0;"/><polygon fill="none" points="275.906,229.094,259.0047,237.7164,267.5584,246.1327,275.906,229.094" style="stroke:#181818;stroke-width:1.0;"/></g><!--reverse link Poligono to ProductoRectangulo--><g id="link_Poligono_ProductoRectangulo"><path codeLine="37" d="M327.886,245.5075 C337.781,267.4875 343.841,280.949 355.079,305.9139 " fill="none" id="Poligono-backto-ProductoRectangulo" style="stroke:#181818;stroke-width:1.0;"/><polygon fill="none" points="320.497,229.094,322.4149,247.9705,333.3572,243.0445,320.497,229.094" style="stroke:#181818;stroke-width:1.0;"/></g><!--link CreatorTriangulo to ProductoTriangulo--><g id="link_CreatorTriangulo_ProductoTriangulo"><path codeLine="39" d="M112.698,229.094 C119.907,251.074 127.8351,275.2478 136.0231,300.2127 " fill="none" id="CreatorTriangulo-to-ProductoTriangulo" style="stroke:#181818;stroke-width:1.0;"/><polygon fill="#181818" points="137.893,305.9139,138.889,296.1155,136.3348,301.1629,131.2874,298.6087,137.893,305.9139" style="stroke:#181818;stroke-width:1.0;"/><text fill="#000000" font-family="sans-serif" font-size="13" lengthAdjust="spacing" textLength="30" x="129.5" y="272.0669">Crea</text></g><!--link CreatorRectangulo to ProductoRectangulo--><g id="link_CreatorRectangulo_ProductoRectangulo"><path codeLine="40" d="M483.705,229.094 C464.764,251.074 442.9368,276.4038 421.4238,301.3687 " fill="none" id="CreatorRectangulo-to-ProductoRectangulo" style="stroke:#181818;stroke-width:1.0;"/><polygon fill="#181818" points="417.507,305.9139,426.4123,301.7072,420.771,302.1262,420.352,296.4849,417.507,305.9139" style="stroke:#181818;stroke-width:1.0;"/><text fill="#000000" font-family="sans-serif" font-size="13" lengthAdjust="spacing" textLength="30" x="457.5" y="272.0669">Crea</text></g><!--SRC=[ZP31Ri8m44Jl_efLJfJAXt2CAYxz0OJeELfiGosvNkGibL3RVw-X4CTnAl1nPsUyyt3RSK35e1ns7Rm6Wqm1lWJ4zmoxA54ujH-6tqdFdXhu9Aklui446uL0_Vn7Y2nd4opw_T7HlS2nSMqKF-oy7VtoBMNnywIQufExgYkGSWdLl88LERidJz1S72aZHYXdZUTMaJPHVkjG2CmXzkxRwHH9eRBaoxwhGFeOYur9nN-G3LFTWFMSZHPfz51qmLA2GvqddmVtS_jY5vR5wV_e4x1JspFnaa6EVL1Wk3uO_-t_0W00]--></g></svg>